<svg width="188" height="46" viewBox="0 0 188 46" fill="none" xmlns="http://www.w3.org/2000/svg">
<path d="M7.16602 15C7.16602 13.9391 7.58744 12.9217 8.33759 12.1716C9.08773 11.4214 10.1051 11 11.166 11H23.166C24.2269 11 25.2443 11.4214 25.9944 12.1716C26.7446 12.9217 27.166 13.9391 27.166 15V39C27.166 40.0609 26.7446 41.0783 25.9944 41.8284C25.2443 42.5786 24.2269 43 23.166 43H11.166C10.1051 43 9.08773 42.5786 8.33759 41.8284C7.58744 41.0783 7.16602 40.0609 7.16602 39V15ZM19.166 37C19.166 36.4696 18.9553 35.9609 18.5802 35.5858C18.2052 35.2107 17.6964 35 17.166 35C16.6356 35 16.1269 35.2107 15.7518 35.5858C15.3767 35.9609 15.166 36.4696 15.166 37C15.166 37.5304 15.3767 38.0391 15.7518 38.4142C16.1269 38.7893 16.6356 39 17.166 39C17.6964 39 18.2052 38.7893 18.5802 38.4142C18.9553 38.0391 19.166 37.5304 19.166 37Z" fill="#5A189A"/>
<path d="M32.666 22.5H14.666V41.5H32.666V22.5Z" stroke="#5A189A"/>
<path d="M24.666 0.5H3.66602V21.5H24.666V0.5Z" stroke="#5A189A"/>
<path d="M40.666 5.5H19.666V26.5H40.666V5.5Z" stroke="#5A189A"/>
<path d="M19.666 26.5H0.666016V45.5H19.666V26.5Z" stroke="#5A189A"/>
<path d="M53.3501 16.988C52.4381 17.02 51.7981 17.108 51.4301 17.252C51.0781 17.38 50.8301 17.636 50.6861 18.02C50.5421 18.404 50.4141 19.1 50.3021 20.108L48.2861 20.252C48.3181 19.932 48.3661 19.236 48.4301 18.164C48.5101 17.092 48.5581 16.068 48.5741 15.092L48.8381 14.828L51.2381 15.092H58.7261L61.1741 14.828L61.4381 15.092C61.4541 16.1 61.4941 17.116 61.5581 18.14C61.6221 19.148 61.6621 19.804 61.6781 20.108L59.6621 20.252C59.5341 19.164 59.3981 18.428 59.2541 18.044C59.1261 17.644 58.8941 17.38 58.5581 17.252C58.2221 17.108 57.6221 17.02 56.7581 16.988C56.6941 18.108 56.6381 19.676 56.5901 21.692C56.5421 23.692 56.5181 25.548 56.5181 27.26C56.5181 27.852 56.6141 28.276 56.8061 28.532C57.0141 28.772 57.3501 28.892 57.8141 28.892C58.1501 28.892 58.4301 28.884 58.6541 28.868C58.8781 28.852 59.0221 28.836 59.0861 28.82L59.1821 28.94L58.9661 30.596C58.6461 30.58 58.0621 30.556 57.2141 30.524C56.3821 30.508 55.5741 30.5 54.7901 30.5C54.2301 30.5 53.4941 30.516 52.5821 30.548C51.6701 30.596 51.0701 30.628 50.7821 30.644L50.9741 29.06C51.7101 28.996 52.2301 28.9 52.5341 28.772C52.8541 28.628 53.0701 28.404 53.1821 28.1C53.2941 27.78 53.3501 27.26 53.3501 26.54V16.988ZM62.5234 29.084C62.9554 29.036 63.2514 28.924 63.4114 28.748C63.5874 28.556 63.6754 28.236 63.6754 27.788V16.172C63.6754 15.676 63.6034 15.332 63.4594 15.14C63.3154 14.948 63.0434 14.852 62.6434 14.852H62.0914L61.9954 14.732L62.1394 13.46C63.0514 13.348 64.0274 13.204 65.0674 13.028C66.1074 12.852 66.7794 12.74 67.0834 12.692L67.2514 13.148C67.0914 13.34 66.9554 14.148 66.8434 15.572C66.7314 16.996 66.6434 18.876 66.5794 21.212C67.0594 20.764 67.6274 20.308 68.2834 19.844C68.9554 19.364 69.4434 19.124 69.7474 19.124C70.9154 19.124 71.8114 19.396 72.4354 19.94C73.0594 20.468 73.3714 21.236 73.3714 22.244C73.3714 22.644 73.2994 23.492 73.1554 24.788C72.9954 26.388 72.9154 27.42 72.9154 27.884C72.9154 28.284 72.9714 28.572 73.0834 28.748C73.2114 28.924 73.4114 29.012 73.6834 29.012L74.4034 28.988L74.4514 29.084L74.2114 30.572C74.0194 30.556 73.6674 30.54 73.1554 30.524C72.6594 30.508 72.1474 30.5 71.6194 30.5C71.2354 30.5 70.7394 30.524 70.1314 30.572C69.5234 30.636 69.1234 30.676 68.9314 30.692L69.0514 29.18C69.4514 29.084 69.7314 28.94 69.8914 28.748C70.0674 28.54 70.1554 28.236 70.1554 27.836L70.2514 23.732C70.2674 22.34 69.7634 21.644 68.7394 21.644C68.1154 21.644 67.3874 21.972 66.5554 22.628C66.5234 23.732 66.5074 25.5 66.5074 27.932C66.5074 28.332 66.5554 28.612 66.6514 28.772C66.7634 28.932 66.9474 29.012 67.2034 29.012C67.3314 29.012 67.4514 29.004 67.5634 28.988C67.6914 28.972 67.7714 28.964 67.8034 28.964L67.8754 29.108L67.6354 30.572C67.4594 30.556 67.1154 30.54 66.6034 30.524C66.0914 30.508 65.5634 30.5 65.0194 30.5C64.3954 30.5 63.8274 30.508 63.3154 30.524C62.8194 30.54 62.4914 30.556 62.3314 30.572L62.5234 29.084ZM78.7221 25.1C78.7701 26.156 79.0501 26.98 79.5621 27.572C80.0901 28.148 80.8021 28.436 81.6981 28.436C82.1461 28.436 82.5861 28.388 83.0181 28.292C83.4501 28.18 83.8021 28.068 84.0741 27.956C84.3461 27.828 84.5221 27.748 84.6021 27.716L84.7701 27.788L85.1781 29.012C85.1781 29.028 84.9221 29.196 84.4101 29.516C83.9141 29.836 83.3541 30.132 82.7301 30.404C82.1221 30.66 81.5621 30.788 81.0501 30.788C79.3541 30.788 78.0181 30.292 77.0421 29.3C76.0821 28.308 75.6021 26.956 75.6021 25.244C75.6021 24.092 75.8501 23.052 76.3461 22.124C76.8421 21.196 77.5221 20.468 78.3861 19.94C79.2501 19.396 80.2181 19.124 81.2901 19.124C83.9941 19.124 85.3461 20.5 85.3461 23.252C85.3461 23.54 85.3221 23.82 85.2741 24.092C85.2261 24.364 85.1941 24.54 85.1781 24.62L84.8901 24.884H78.7221V25.1ZM81.9381 23.372C82.1141 23.34 82.2341 23.292 82.2981 23.228C82.3621 23.164 82.3941 23.028 82.3941 22.82C82.3941 21.636 81.8901 21.044 80.8821 21.044C80.2581 21.044 79.7541 21.26 79.3701 21.692C79.0021 22.108 78.7861 22.724 78.7221 23.54L81.9381 23.372ZM91.2954 16.988C90.3834 17.02 89.7434 17.108 89.3754 17.252C89.0234 17.38 88.7754 17.636 88.6314 18.02C88.4874 18.404 88.3594 19.1 88.2474 20.108L86.2314 20.252C86.2634 19.932 86.3114 19.236 86.3754 18.164C86.4554 17.092 86.5034 16.068 86.5194 15.092L86.7834 14.828L89.1834 15.092H96.6714L99.1194 14.828L99.3834 15.092C99.3994 16.1 99.4394 17.116 99.5034 18.14C99.5674 19.148 99.6074 19.804 99.6234 20.108L97.6074 20.252C97.4794 19.164 97.3434 18.428 97.1994 18.044C97.0714 17.644 96.8394 17.38 96.5034 17.252C96.1674 17.108 95.5674 17.02 94.7034 16.988C94.6394 18.108 94.5834 19.676 94.5354 21.692C94.4874 23.692 94.4634 25.548 94.4634 27.26C94.4634 27.852 94.5594 28.276 94.7514 28.532C94.9594 28.772 95.2954 28.892 95.7594 28.892C96.0954 28.892 96.3754 28.884 96.5994 28.868C96.8234 28.852 96.9674 28.836 97.0314 28.82L97.1274 28.94L96.9114 30.596C96.5914 30.58 96.0074 30.556 95.1594 30.524C94.3274 30.508 93.5194 30.5 92.7354 30.5C92.1754 30.5 91.4394 30.516 90.5274 30.548C89.6154 30.596 89.0154 30.628 88.7274 30.644L88.9194 29.06C89.6554 28.996 90.1754 28.9 90.4794 28.772C90.7994 28.628 91.0154 28.404 91.1274 28.1C91.2394 27.78 91.2954 27.26 91.2954 26.54V16.988ZM102.417 25.1C102.465 26.156 102.745 26.98 103.257 27.572C103.785 28.148 104.497 28.436 105.393 28.436C105.841 28.436 106.281 28.388 106.713 28.292C107.145 28.18 107.497 28.068 107.769 27.956C108.041 27.828 108.217 27.748 108.297 27.716L108.465 27.788L108.873 29.012C108.873 29.028 108.617 29.196 108.105 29.516C107.609 29.836 107.049 30.132 106.425 30.404C105.817 30.66 105.257 30.788 104.745 30.788C103.049 30.788 101.713 30.292 100.737 29.3C99.7774 28.308 99.2974 26.956 99.2974 25.244C99.2974 24.092 99.5454 23.052 100.041 22.124C100.537 21.196 101.217 20.468 102.081 19.94C102.945 19.396 103.913 19.124 104.985 19.124C107.689 19.124 109.041 20.5 109.041 23.252C109.041 23.54 109.017 23.82 108.969 24.092C108.921 24.364 108.889 24.54 108.873 24.62L108.585 24.884H102.417V25.1ZM105.633 23.372C105.809 23.34 105.929 23.292 105.993 23.228C106.057 23.164 106.089 23.028 106.089 22.82C106.089 21.636 105.585 21.044 104.577 21.044C103.953 21.044 103.449 21.26 103.065 21.692C102.697 22.108 102.481 22.724 102.417 23.54L105.633 23.372ZM119.288 28.988C119.176 29.084 118.92 29.276 118.52 29.564C118.12 29.852 117.648 30.132 117.104 30.404C116.576 30.66 116.096 30.788 115.664 30.788C114.016 30.788 112.72 30.292 111.776 29.3C110.832 28.308 110.36 26.956 110.36 25.244C110.36 24.06 110.608 23.004 111.104 22.076C111.6 21.148 112.288 20.428 113.168 19.916C114.064 19.388 115.08 19.124 116.216 19.124C116.744 19.124 117.232 19.164 117.68 19.244C118.144 19.308 118.504 19.38 118.76 19.46C119.032 19.54 119.2 19.596 119.264 19.628L119.36 19.844C119.344 19.94 119.296 20.164 119.216 20.516C119.152 20.852 119.08 21.3 119 21.86C118.92 22.404 118.864 22.972 118.832 23.564L117.272 23.66V22.868C117.272 22.324 117.136 21.908 116.864 21.62C116.608 21.316 116.248 21.164 115.784 21.164C115.048 21.164 114.488 21.436 114.104 21.98C113.72 22.524 113.528 23.308 113.528 24.332C113.528 25.644 113.752 26.644 114.2 27.332C114.664 28.02 115.32 28.364 116.168 28.364C116.552 28.364 116.936 28.316 117.32 28.22C117.704 28.108 118.016 27.996 118.256 27.884C118.496 27.772 118.648 27.7 118.712 27.668L118.904 27.74L119.288 28.988ZM120.695 29.084C121.127 29.036 121.423 28.924 121.583 28.748C121.759 28.556 121.847 28.236 121.847 27.788V16.172C121.847 15.676 121.775 15.332 121.631 15.14C121.487 14.948 121.215 14.852 120.815 14.852H120.263L120.167 14.732L120.311 13.46C121.223 13.348 122.199 13.204 123.239 13.028C124.279 12.852 124.951 12.74 125.255 12.692L125.423 13.148C125.263 13.34 125.127 14.148 125.015 15.572C124.903 16.996 124.815 18.876 124.751 21.212C125.231 20.764 125.799 20.308 126.455 19.844C127.127 19.364 127.615 19.124 127.919 19.124C129.087 19.124 129.983 19.396 130.607 19.94C131.231 20.468 131.543 21.236 131.543 22.244C131.543 22.644 131.471 23.492 131.327 24.788C131.167 26.388 131.087 27.42 131.087 27.884C131.087 28.284 131.143 28.572 131.255 28.748C131.383 28.924 131.583 29.012 131.855 29.012L132.575 28.988L132.623 29.084L132.383 30.572C132.191 30.556 131.839 30.54 131.327 30.524C130.831 30.508 130.319 30.5 129.791 30.5C129.407 30.5 128.911 30.524 128.303 30.572C127.695 30.636 127.295 30.676 127.103 30.692L127.223 29.18C127.623 29.084 127.903 28.94 128.063 28.748C128.239 28.54 128.327 28.236 128.327 27.836L128.423 23.732C128.439 22.34 127.935 21.644 126.911 21.644C126.287 21.644 125.559 21.972 124.727 22.628C124.695 23.732 124.679 25.5 124.679 27.932C124.679 28.332 124.727 28.612 124.823 28.772C124.935 28.932 125.119 29.012 125.375 29.012C125.503 29.012 125.623 29.004 125.735 28.988C125.863 28.972 125.943 28.964 125.975 28.964L126.047 29.108L125.807 30.572C125.631 30.556 125.287 30.54 124.775 30.524C124.263 30.508 123.735 30.5 123.191 30.5C122.567 30.5 121.999 30.508 121.487 30.524C120.991 30.54 120.663 30.556 120.503 30.572L120.695 29.084ZM138.774 27.332C140.214 23.716 140.934 21.724 140.934 21.356C140.934 21.164 140.886 21.036 140.79 20.972C140.694 20.892 140.51 20.852 140.238 20.852H139.47L139.398 20.732L139.59 19.34C139.75 19.356 140.07 19.372 140.55 19.388C141.03 19.404 141.558 19.412 142.134 19.412H144.366L144.174 20.876C143.822 20.956 143.566 21.076 143.406 21.236C143.246 21.38 143.094 21.652 142.95 22.052L139.878 29.468C138.87 31.916 137.918 33.668 137.022 34.724C136.126 35.78 135.15 36.3 134.094 36.284C133.95 36.284 133.726 36.156 133.422 35.9C133.134 35.644 132.87 35.356 132.63 35.036C132.39 34.732 132.27 34.5 132.27 34.34L132.462 34.028C133.486 33.948 134.414 33.62 135.246 33.044C136.078 32.468 136.758 31.692 137.286 30.716C136.854 29.436 136.286 27.868 135.582 26.012C134.894 24.156 134.358 22.796 133.974 21.932C133.782 21.564 133.574 21.308 133.35 21.164C133.142 21.004 132.87 20.916 132.534 20.9L132.486 20.78L132.654 19.412H134.526C135.246 19.412 136.038 19.388 136.902 19.34C137.766 19.292 138.198 19.26 138.198 19.244L138.246 19.364L138.03 20.78C137.582 20.796 137.278 20.852 137.118 20.948C136.958 21.028 136.878 21.164 136.878 21.356C136.878 21.676 137.102 22.62 137.55 24.188C138.014 25.74 138.334 26.788 138.51 27.332H138.774ZM150.195 17.828C150.003 21.7 149.907 24.86 149.907 27.308C149.907 27.964 149.971 28.404 150.099 28.628C150.227 28.836 150.475 28.94 150.843 28.94C151.099 28.94 151.315 28.932 151.491 28.916C151.683 28.9 151.803 28.884 151.851 28.868L151.971 29.036L151.755 30.572C151.483 30.572 150.987 30.556 150.267 30.524C149.563 30.508 148.875 30.5 148.203 30.5C147.627 30.5 146.979 30.524 146.259 30.572C145.539 30.636 145.067 30.684 144.843 30.716L145.011 29.156C145.715 29.012 146.179 28.804 146.403 28.532C146.643 28.26 146.763 27.796 146.763 27.14V17.9C146.763 17.404 146.707 17.076 146.595 16.916C146.483 16.74 146.251 16.652 145.899 16.652L145.083 16.676L144.963 16.484L145.131 15.068L148.467 15.092C148.915 15.092 149.531 15.068 150.315 15.02C151.115 14.972 151.643 14.94 151.899 14.924L151.755 16.532C151.147 16.612 150.739 16.74 150.531 16.916C150.339 17.076 150.227 17.38 150.195 17.828ZM160.376 29.18C160.76 29.084 161.032 28.94 161.192 28.748C161.368 28.54 161.464 28.236 161.48 27.836L161.552 23.732C161.552 22.34 161.04 21.644 160.016 21.644C159.472 21.644 158.784 21.94 157.952 22.532C157.792 25.444 157.712 27.236 157.712 27.908C157.712 28.324 157.76 28.612 157.856 28.772C157.968 28.916 158.16 28.988 158.432 28.988C158.544 28.988 158.664 28.98 158.792 28.964C158.92 28.948 159.008 28.94 159.056 28.94L159.104 29.06L158.864 30.572C158.688 30.556 158.352 30.54 157.856 30.524C157.36 30.508 156.848 30.5 156.32 30.5C155.808 30.5 155.24 30.516 154.616 30.548C154.008 30.596 153.616 30.628 153.44 30.644L153.656 29.108C154.12 29.06 154.44 28.94 154.616 28.748C154.808 28.556 154.904 28.236 154.904 27.788V22.748C154.904 22.188 154.816 21.812 154.64 21.62C154.48 21.412 154.176 21.308 153.728 21.308H153.416L153.32 21.188L153.44 19.916C154.368 19.772 155.28 19.62 156.176 19.46C157.088 19.284 157.672 19.172 157.928 19.124L158.12 19.364C158.088 19.46 158.04 19.676 157.976 20.012C157.912 20.348 157.872 20.684 157.856 21.02L157.952 21.116C158.48 20.652 159.056 20.204 159.68 19.772C160.304 19.34 160.76 19.124 161.048 19.124C162.184 19.124 163.072 19.404 163.712 19.964C164.352 20.508 164.672 21.268 164.672 22.244C164.672 22.5 164.608 23.348 164.48 24.788C164.32 26.388 164.24 27.42 164.24 27.884C164.24 28.3 164.296 28.596 164.408 28.772C164.52 28.932 164.712 29.012 164.984 29.012L165.704 28.988L165.752 29.084L165.536 30.572C165.344 30.556 164.992 30.54 164.48 30.524C163.968 30.508 163.448 30.5 162.92 30.5C162.536 30.5 162.04 30.524 161.432 30.572C160.824 30.636 160.424 30.676 160.232 30.692L160.376 29.18ZM168.664 19.604V19.412C168.664 18.052 168.912 16.868 169.408 15.86C169.904 14.836 170.608 14.052 171.52 13.508C172.432 12.964 173.496 12.692 174.712 12.692C175.192 12.692 175.632 12.732 176.032 12.812C176.448 12.876 176.776 12.948 177.016 13.028C177.256 13.108 177.408 13.164 177.472 13.196L177.568 13.58C177.52 13.692 177.416 13.94 177.256 14.324C177.112 14.692 176.944 15.156 176.752 15.716L176.44 15.788C176.392 15.74 176.248 15.644 176.008 15.5C175.784 15.356 175.488 15.22 175.12 15.092C174.752 14.948 174.352 14.876 173.92 14.876C173.088 14.876 172.496 15.164 172.144 15.74C171.792 16.3 171.608 17.252 171.592 18.596V19.7C172.392 19.7 173.064 19.692 173.608 19.676C174.152 19.66 174.504 19.644 174.664 19.628L174.76 19.748L174.496 21.38C174.352 21.38 174.024 21.372 173.512 21.356C173 21.34 172.352 21.324 171.568 21.308L171.496 27.788C171.496 28.172 171.576 28.452 171.736 28.628C171.896 28.804 172.152 28.892 172.504 28.892C172.856 28.892 173.168 28.884 173.44 28.868C173.712 28.852 173.888 28.844 173.968 28.844L174.04 28.964L173.824 30.572C173.552 30.572 173.064 30.556 172.36 30.524C171.672 30.508 171 30.5 170.344 30.5C169.784 30.5 169.16 30.516 168.472 30.548C167.8 30.596 167.36 30.628 167.152 30.644L167.32 29.156C167.784 29.092 168.12 28.956 168.328 28.748C168.552 28.524 168.664 28.204 168.664 27.788V22.196C168.648 21.828 168.536 21.588 168.328 21.476C168.12 21.348 167.712 21.268 167.104 21.236L167.008 21.092L167.176 19.844L168.664 19.604ZM180.088 30.788C179.08 30.788 178.192 30.564 177.424 30.116C176.656 29.652 176.064 29.004 175.648 28.172C175.232 27.34 175.024 26.38 175.024 25.292C175.024 24.076 175.264 23.004 175.744 22.076C176.24 21.148 176.928 20.428 177.808 19.916C178.688 19.388 179.696 19.124 180.832 19.124C182.384 19.124 183.608 19.62 184.504 20.612C185.416 21.588 185.872 22.924 185.872 24.62C185.872 25.836 185.632 26.908 185.152 27.836C184.672 28.764 183.992 29.492 183.112 30.02C182.232 30.532 181.224 30.788 180.088 30.788ZM180.592 28.94C181.952 28.94 182.632 27.868 182.632 25.724C182.632 24.22 182.424 23.092 182.008 22.34C181.608 21.572 181.024 21.188 180.256 21.188C179.584 21.188 179.072 21.46 178.72 22.004C178.384 22.548 178.216 23.348 178.216 24.404C178.216 25.908 178.416 27.044 178.816 27.812C179.232 28.564 179.824 28.94 180.592 28.94Z" fill="#5A189A"/>
</svg>
