<svg width="24" height="24" viewBox="0 0 24 24" fill="none" xmlns="http://www.w3.org/2000/svg">
<path d="M12 2C10.0222 2 8.08879 2.58649 6.4443 3.6853C4.79981 4.78412 3.51809 6.3459 2.76121 8.17316C2.00433 10.0004 1.8063 12.0111 2.19215 13.9509C2.578 15.8907 3.53041 17.6725 4.92894 19.0711C6.32746 20.4696 8.10929 21.422 10.0491 21.8078C11.9889 22.1937 13.9996 21.9957 15.8268 21.2388C17.6541 20.4819 19.2159 19.2002 20.3147 17.5557C21.4135 15.9112 22 13.9778 22 12C21.9975 9.34861 20.9431 6.80655 19.0683 4.93174C17.1934 3.05693 14.6514 2.00255 12 2ZM15.8462 12.7692H12.7692V15.8462C12.7692 16.0502 12.6882 16.2458 12.5439 16.3901C12.3997 16.5343 12.204 16.6154 12 16.6154C11.796 16.6154 11.6003 16.5343 11.4561 16.3901C11.3118 16.2458 11.2308 16.0502 11.2308 15.8462V12.7692H8.15385C7.94984 12.7692 7.75418 12.6882 7.60992 12.5439C7.46566 12.3997 7.38462 12.204 7.38462 12C7.38462 11.796 7.46566 11.6003 7.60992 11.4561C7.75418 11.3118 7.94984 11.2308 8.15385 11.2308H11.2308V8.15384C11.2308 7.94983 11.3118 7.75418 11.4561 7.60992C11.6003 7.46566 11.796 7.38461 12 7.38461C12.204 7.38461 12.3997 7.46566 12.5439 7.60992C12.6882 7.75418 12.7692 7.94983 12.7692 8.15384V11.2308H15.8462C16.0502 11.2308 16.2458 11.3118 16.3901 11.4561C16.5343 11.6003 16.6154 11.796 16.6154 12C16.6154 12.204 16.5343 12.3997 16.3901 12.5439C16.2458 12.6882 16.0502 12.7692 15.8462 12.7692Z" fill="black"/>
</svg>
